<svg width="24" height="24" viewBox="0 0 24 24" fill="none" xmlns="http://www.w3.org/2000/svg">
<path d="M12 0C5.38323 0 0 5.38323 0 12C0 18.6163 5.38323 24 12 24C18.6163 24 24 18.6163 24 12C24 5.38323 18.6173 0 12 0Z" fill="white"/>
<mask id="mask0" mask-type="alpha" maskUnits="userSpaceOnUse" x="5" y="4" width="15" height="16">
<path fill-rule="evenodd" clip-rule="evenodd" d="M5 4.00537H19.9759V19.4483H5V4.00537Z" fill="white"/>
</mask>
<g mask="url(#mask0)">
<path fill-rule="evenodd" clip-rule="evenodd" d="M18.6463 11.5319C18.6193 10.5704 18.5987 9.40434 18.5487 8.23959C18.5242 7.66844 18.3745 7.1215 18.0542 6.64221C17.5803 5.93306 16.8942 5.58244 16.0878 5.50079C15.4068 5.43187 14.7199 5.407 14.0352 5.39925C12.8461 5.38573 11.6566 5.39196 10.4675 5.40731C9.94061 5.41413 9.41267 5.44621 8.88817 5.49848C8.40807 5.54631 7.95288 5.70015 7.55207 5.98924C6.8719 6.47983 6.53422 7.18347 6.45565 8.01042C6.38891 8.71298 6.3647 9.42162 6.35716 10.1279C6.34408 11.3546 6.35012 12.5817 6.365 13.8084C6.37161 14.3519 6.40264 14.8966 6.45335 15.4376C6.49977 15.9329 6.64875 16.4025 6.92888 16.8161C7.40429 17.5182 8.08675 17.8663 8.88819 17.9473C9.57343 18.0167 10.2647 18.0429 10.9536 18.0488C12.2258 18.0599 13.4982 18.0469 14.7704 18.0342C15.3061 18.0288 15.8427 18.0156 16.3711 17.9037C17.1663 17.7353 17.7955 17.321 18.1897 16.5748C18.4641 16.0553 18.5584 15.4834 18.5753 14.9008C18.6061 13.8465 18.6208 12.7918 18.6463 11.5319ZM14.9093 19.4483H10.0674C10.0401 19.4412 10.013 19.4292 9.98544 19.4276C9.64124 19.408 9.29616 19.3993 8.95281 19.3693C8.30472 19.3126 7.68076 19.1512 7.11128 18.8206C5.89349 18.1135 5.26508 16.9978 5.10842 15.597C5.03005 14.8963 5.01168 14.1861 5.00556 13.4798C4.99356 12.0903 5.00279 10.7004 5.01607 9.31078C5.02174 8.71563 5.03601 8.11845 5.15122 7.53157C5.49754 5.76743 6.50142 4.642 8.20513 4.20383C8.92124 4.01964 9.65579 4.01426 10.3856 4.00924C11.932 3.9986 13.4787 4.01209 15.0252 4.02337C15.582 4.02744 16.139 4.05527 16.6852 4.18208C18.0966 4.50979 19.0986 5.34 19.6183 6.7503C19.8423 7.35809 19.9145 7.99574 19.9393 8.64109C19.9468 8.83646 19.9634 9.0315 19.9759 9.22669V14.2216C19.9689 14.2624 19.957 14.303 19.9558 14.344C19.9387 14.9138 19.9216 15.4837 19.801 16.0431C19.4869 17.4996 18.6861 18.5346 17.3205 19.0746C16.7277 19.309 16.1062 19.3842 15.4768 19.4105C15.2874 19.4185 15.0984 19.4354 14.9093 19.4483Z" fill="black"/>
</g>
<path fill-rule="evenodd" clip-rule="evenodd" d="M9.65232 12C9.64972 13.3217 10.7383 14.4384 12.0191 14.457C13.3782 14.4768 14.4935 13.3966 14.5084 12.055C14.5239 10.6503 13.4418 9.54318 12.0797 9.54357C10.7457 9.54396 9.65497 10.6478 9.65232 12ZM15.833 12.0069C15.8292 14.1021 14.1524 15.7916 12.079 15.7894C10.001 15.7871 8.32564 14.0864 8.33303 11.9866C8.3404 9.89145 10.0197 8.20493 12.0929 8.21046C14.1662 8.21594 15.8368 9.91171 15.833 12.0069Z" fill="black"/>
<path fill-rule="evenodd" clip-rule="evenodd" d="M16.67 6.52637C17.1376 6.52737 17.5012 6.89828 17.4997 7.37266C17.4982 7.84238 17.1256 8.21392 16.6594 8.21056C16.202 8.20724 15.8331 7.83101 15.833 7.36774C15.8329 6.89751 16.2031 6.52537 16.67 6.52637Z" fill="black"/>
</svg>
